<svg xmlns="http://www.w3.org/2000/svg" width="1440" height="632" viewBox="0 0 1440 632" fill="none">
  <path stroke="#737373" d="M-79.472 834.84l-.232.66H51.84l.115-.34 91.815-274.016h396.652l91.815 274.016.115.34h131.544l-.232-.66L404.843-192.165l-.117-.335h-125.26l-.117.335L-79.472 834.84zM342.096-23.193l156.471 460.097H185.625L342.096-23.193z"/>
  <path stroke="#737373" d="M30.618 202.552l-.07.46.454.104 109.634 24.961.488.111.11-.488c16.239-71.69 76.754-115.608 155.075-115.608 54.005 0 94.604 12.832 121.7 38.225 27.091 25.388 40.77 63.411 40.77 113.98V296.1H337.792c-104.506 0-189.069 21.301-247.52 62.311C31.798 399.437-.5 460.161-.5 538.873c0 75.729 24.114 132.038 65.166 169.41 41.045 37.365 98.958 55.743 166.455 55.743 101.958 0 178.945-37.934 233.821-115.259l20.514 103.11.08.402h98.693V278.981c0-94.076-28.555-163.969-78.869-210.338C455.053 22.281 383.062-.5 296.309-.5 155.371-.5 49.924 77.45 30.619 202.552zm97.295 336.321c0-41.677 18.063-74.191 51.813-96.307 33.777-22.134 83.299-33.873 146.214-33.873h132.839v17.119c0 77.738-20.718 134.84-62.056 171.419-41.387 36.623-90.158 54.203-146.342 54.203-39.174 0-69.78-10.621-90.589-29.967-20.805-19.342-31.879-47.462-31.879-82.594z" transform="rotate(-105.012 655.371 87.674) skewX(-.025)"/>
</svg>
